<svg xmlns="http://www.w3.org/2000/svg" width="60" height="60" enable-background="new" viewBox="0 0 60 60"><path d="m14 14c-3.3067 0-6 2.6933-6 6v20c0 3.3067 2.6933 6 6 6h32c3.3067 0 6-2.6933 6-6v-20c0-3.3067-2.6933-6-6-6h-32zm0 2h32c2.2333 0 4 1.7667 4 4v20c0 2.2333-1.7667 4-4 4h-32c-2.2333 0-4-1.7667-4-4v-20c0-2.2333 1.7667-4 4-4z" color="#000" style="font-feature-settings:normal;font-variant-alternates:normal;font-variant-caps:normal;font-variant-east-asian:normal;font-variant-ligatures:normal;font-variant-numeric:normal;font-variant-position:normal;font-variation-settings:normal;inline-size:0;isolation:auto;mix-blend-mode:normal;shape-margin:0;shape-padding:0;text-decoration-color:#000;text-decoration-line:none;text-decoration-style:solid;text-indent:0;text-orientation:mixed;text-transform:none"/><path d="m15.029 20a1 1 0 0 0-0.73633 0.29297 1 1 0 0 0 0 1.4141l12 12c2.039 2.039 5.3751 2.039 7.4141 0l12-12a1 1 0 0 0 0-1.4141 1 1 0 0 0-1.4141 0l-12 12c-1.2747 1.2747-3.3112 1.2747-4.5859 0l-12-12a1 1 0 0 0-0.67773-0.29297z" color="#000" style="font-feature-settings:normal;font-variant-alternates:normal;font-variant-caps:normal;font-variant-east-asian:normal;font-variant-ligatures:normal;font-variant-numeric:normal;font-variant-position:normal;font-variation-settings:normal;inline-size:0;isolation:auto;mix-blend-mode:normal;shape-margin:0;shape-padding:0;text-decoration-color:#000;text-decoration-line:none;text-decoration-style:solid;text-indent:0;text-orientation:mixed;text-transform:none"/></svg>