<svg xmlns="http://www.w3.org/2000/svg" width="32" height="32" viewBox="0 0 32 32"><path style="line-height:normal;-inkscape-font-specification:Sans;text-indent:0;text-align:start;text-decoration-line:none;text-transform:none;block-progression:tb;marker:none" d="m 15.679628,1020.3642 0,0 c -0.218031,7e-4 -0.371316,0.095 -0.480296,0.1835 -0.108982,0.088 -0.189604,0.1832 -0.26553,0.2851 -0.151854,0.2036 -0.281409,0.439 -0.408058,0.6735 -0.126645,0.2347 -0.247433,0.4697 -0.349484,0.6482 -0.10205,0.1785 -0.234768,0.309 -0.162051,0.2558 0.07272,-0.053 -0.09187,0.033 -0.292864,0.076 -0.200991,0.043 -0.460359,0.087 -0.722397,0.1366 -0.262039,0.05 -0.525267,0.1025 -0.765351,0.1855 -0.120041,0.041 -0.234333,0.089 -0.351437,0.166 -0.117103,0.077 -0.255419,0.1946 -0.322149,0.4021 -0.06673,0.2075 -0.0229,0.3845 0.02734,0.5155 0.05022,0.1308 0.116013,0.236 0.189386,0.3397 0.146745,0.2074 0.329416,0.4045 0.513486,0.5975 0.184072,0.193 0.369446,0.3788 0.507631,0.531 0.138186,0.1522 0.221395,0.3179 0.19329,0.2323 -0.02811,-0.086 0.0035,0.099 -0.01757,0.3027 -0.02106,0.2044 -0.05987,0.4637 -0.09372,0.7283 -0.03384,0.2646 -0.06527,0.5327 -0.06053,0.7867 0.0024,0.127 0.01361,0.2495 0.05077,0.3847 0.03716,0.1352 0.106311,0.3039 0.2831,0.4315 0.17679,0.1277 0.355894,0.1401 0.495917,0.1328 0.140024,-0.01 0.263354,-0.038 0.384627,-0.076 0.242546,-0.075 0.483943,-0.1872 0.724349,-0.3026 0.240409,-0.1154 0.476372,-0.2338 0.663826,-0.3183 0.187451,-0.084 0.371237,-0.1135 0.281149,-0.1132 -0.09009,3e-4 0.09318,0.028 0.281149,0.1113 0.187976,0.083 0.422701,0.2004 0.663824,0.3143 0.241124,0.114 0.485243,0.2248 0.728255,0.2988 0.121505,0.037 0.24261,0.066 0.382675,0.072 0.140066,0.01 0.321876,-0.01 0.497868,-0.1347 0.175991,-0.1288 0.242885,-0.298 0.279197,-0.4335 0.03632,-0.1355 0.04528,-0.2595 0.04686,-0.3866 0.0032,-0.254 -0.02895,-0.5204 -0.06443,-0.7848 -0.03549,-0.2643 -0.07529,-0.524 -0.09762,-0.7283 -0.02233,-0.2044 0.0061,-0.3884 -0.02148,-0.3026 -0.02757,0.086 0.05606,-0.082 0.19329,-0.2343 0.137235,-0.1531 0.322813,-0.3408 0.505677,-0.5349 0.182864,-0.1942 0.362181,-0.3911 0.507631,-0.5995 0.07273,-0.104 0.139975,-0.2104 0.189385,-0.3417 0.04941,-0.1312 0.09145,-0.3083 0.02343,-0.5154 -0.06803,-0.2072 -0.206521,-0.3238 -0.324102,-0.4002 -0.117581,-0.076 -0.233092,-0.1232 -0.353389,-0.164 -0.240596,-0.082 -0.50496,-0.1317 -0.767303,-0.1796 -0.262343,-0.048 -0.521142,-0.091 -0.722397,-0.1328 -0.201256,-0.042 -0.365913,-0.127 -0.292864,-0.074 0.07305,0.053 -0.06084,-0.078 -0.164005,-0.2558 -0.103156,-0.1778 -0.223329,-0.4104 -0.351435,-0.6443 -0.128106,-0.2338 -0.260796,-0.4669 -0.413914,-0.6696 -0.07657,-0.1014 -0.157955,-0.1956 -0.267483,-0.2832 -0.109529,-0.088 -0.264219,-0.1842 -0.482248,-0.1835 z m 0.0039,1.1558 c 0.08479,0.1234 0.1815,0.2754 0.283101,0.4608 0.120669,0.2203 0.241304,0.4558 0.36315,0.6658 0.12185,0.21 0.196152,0.3879 0.443202,0.5662 0.247049,0.1783 0.437822,0.1925 0.675539,0.2421 0.237715,0.049 0.498714,0.09 0.745825,0.1347 0.208206,0.038 0.383271,0.084 0.527155,0.1249 -0.09118,0.1188 -0.206558,0.2562 -0.351435,0.4101 -0.172249,0.1828 -0.359202,0.3717 -0.521299,0.5525 -0.162098,0.1808 -0.306997,0.3036 -0.400246,0.5935 -0.09324,0.2901 -0.04786,0.4753 -0.02148,0.7166 0.02638,0.2414 0.0681,0.5047 0.101527,0.7537 0.02815,0.2096 0.04197,0.3891 0.04686,0.5388 -0.141153,-0.05 -0.308591,-0.1167 -0.49982,-0.207 -0.227125,-0.1073 -0.465225,-0.2276 -0.687254,-0.326 -0.222031,-0.098 -0.384526,-0.1961 -0.689206,-0.1952 -0.304681,10e-4 -0.465841,0.1014 -0.687253,0.2011 -0.221415,0.1 -0.458851,0.2193 -0.685302,0.3279 -0.190469,0.091 -0.357083,0.16 -0.497868,0.2109 0.0039,-0.1498 0.01609,-0.3289 0.04296,-0.5388 0.03188,-0.2492 0.0708,-0.5122 0.09567,-0.7537 0.02487,-0.2415 0.06967,-0.4271 -0.02538,-0.7166 -0.09505,-0.2893 -0.240932,-0.4136 -0.404152,-0.5934 -0.163219,-0.1798 -0.351818,-0.3669 -0.525202,-0.5487 -0.145985,-0.1531 -0.26146,-0.2898 -0.353389,-0.4081 0.143626,-0.043 0.317211,-0.086 0.525203,-0.1249 0.246825,-0.047 0.510375,-0.092 0.747778,-0.1426 0.237404,-0.051 0.425701,-0.066 0.671634,-0.2459 0.245933,-0.1798 0.318759,-0.3554 0.439296,-0.5662 0.120538,-0.2108 0.241904,-0.4487 0.361199,-0.6697 0.100524,-0.1864 0.195131,-0.3388 0.279197,-0.4628 z m -9.3540687,2.3429 0,0 c -0.218031,7e-4 -0.3732677,0.095 -0.482249,0.1835 -0.1089813,0.088 -0.1876514,0.1832 -0.2635774,0.2851 -0.1518531,0.2036 -0.2833621,0.439 -0.4100091,0.6736 -0.1266465,0.2346 -0.2454816,0.4696 -0.3475317,0.6482 -0.1020496,0.1784 -0.2347693,0.3089 -0.1620513,0.2557 0.072717,-0.053 -0.091872,0.033 -0.2928637,0.076 -0.2009909,0.043 -0.4603589,0.087 -0.7223974,0.1367 -0.2620384,0.05 -0.5252673,0.1025 -0.7653505,0.1855 -0.1200415,0.042 -0.2343335,0.089 -0.3514364,0.1659 -0.117103,0.077 -0.2554207,0.1946 -0.3221501,0.4022 -0.06673,0.2075 -0.024846,0.3844 0.025382,0.5154 0.050227,0.1309 0.117965,0.2361 0.1913376,0.3397 0.1467452,0.2074 0.3274652,0.4046 0.5115354,0.5975 0.18407,0.1931 0.3713973,0.379 0.5095829,0.5311 0.1381854,0.1522 0.2213956,0.3178 0.1932901,0.2323 -0.028106,-0.086 0.00153,0.099 -0.019524,0.3026 -0.021061,0.2044 -0.057921,0.4638 -0.091764,0.7283 -0.033843,0.2646 -0.065263,0.5328 -0.060525,0.7868 0.00237,0.1269 0.011655,0.2495 0.04881,0.3846 0.037155,0.1353 0.1063121,0.304 0.2831015,0.4315 0.1767896,0.1277 0.3578458,0.1401 0.4978684,0.1328 0.1400234,-0.01 0.2614019,-0.038 0.3826754,-0.076 0.242546,-0.075 0.4858936,-0.1871 0.726302,-0.3026 0.2404084,-0.1154 0.4744189,-0.2338 0.661872,-0.3183 0.1874527,-0.084 0.3731903,-0.1135 0.2831017,-0.1132 -0.090089,3e-4 0.093174,0.028 0.2811492,0.1113 0.1879754,0.083 0.4227022,0.2005 0.6638245,0.3143 0.2411228,0.114 0.4852426,0.2248 0.7282545,0.2988 0.1215056,0.037 0.2426096,0.066 0.3826752,0.072 0.1400663,0.01 0.3218766,-0.01 0.4978684,-0.1347 0.1759913,-0.1288 0.2428849,-0.298 0.2791968,-0.4335 0.036312,-0.1354 0.04528,-0.2595 0.046858,-0.3866 0.00316,-0.2539 -0.02894,-0.5204 -0.064429,-0.7848 -0.035489,-0.2643 -0.075288,-0.5239 -0.097621,-0.7283 -0.022333,-0.2044 0.00609,-0.3884 -0.021477,-0.3026 -0.027573,0.086 0.056056,-0.082 0.1932901,-0.2342 0.1372347,-0.1531 0.322814,-0.3409 0.5056781,-0.535 0.1828648,-0.1941 0.3621785,-0.3911 0.5076295,-0.5994 0.07273,-0.1041 0.138023,-0.2105 0.187433,-0.3417 0.04941,-0.1313 0.09341,-0.3084 0.02538,-0.5154 -0.06803,-0.2072 -0.208474,-0.3239 -0.326055,-0.4003 -0.117581,-0.076 -0.2311387,-0.1232 -0.3514362,-0.164 -0.2405956,-0.082 -0.5049605,-0.1316 -0.7673029,-0.1796 -0.2623419,-0.048 -0.5211417,-0.091 -0.7223974,-0.1328 -0.2012556,-0.042 -0.3678645,-0.127 -0.2948162,-0.074 0.073048,0.053 -0.058892,-0.078 -0.1620512,-0.2558 -0.1031588,-0.1778 -0.225283,-0.4104 -0.3533889,-0.6442 -0.1281059,-0.2338 -0.2607958,-0.467 -0.413914,-0.6697 -0.07656,-0.1014 -0.1560009,-0.1956 -0.2655298,-0.2831 -0.1095285,-0.088 -0.2642186,-0.1843 -0.482249,-0.1836 z m 19.3211977,0 0,0 c -0.218031,7e-4 -0.371316,0.095 -0.480297,0.1835 -0.108981,0.088 -0.189604,0.1832 -0.26553,0.2851 -0.151853,0.2036 -0.283361,0.439 -0.410008,0.6736 -0.126647,0.2346 -0.245481,0.4696 -0.347532,0.6482 -0.102049,0.1784 -0.23477,0.3089 -0.162052,0.2557 0.07272,-0.053 -0.09188,0.033 -0.292864,0.076 -0.200991,0.043 -0.460359,0.087 -0.722397,0.1367 -0.262039,0.05 -0.525267,0.1025 -0.76535,0.1855 -0.120043,0.042 -0.234334,0.089 -0.351437,0.1659 -0.117102,0.077 -0.25542,0.1946 -0.322151,0.4022 -0.06673,0.2075 -0.0229,0.3844 0.02734,0.5154 0.05024,0.1309 0.116013,0.2361 0.189385,0.3397 0.146746,0.2074 0.327465,0.4046 0.511536,0.5975 0.18407,0.1931 0.371397,0.379 0.509583,0.5311 0.138184,0.1522 0.221395,0.3178 0.19329,0.2323 -0.02811,-0.086 0.0035,0.099 -0.01757,0.3026 -0.02106,0.2044 -0.05987,0.4638 -0.09371,0.7283 -0.03385,0.2646 -0.06527,0.5328 -0.06053,0.7868 0.0024,0.1269 0.01165,0.2495 0.04881,0.3846 0.03716,0.1353 0.106312,0.304 0.283102,0.4315 0.176789,0.1277 0.357845,0.1401 0.497868,0.1328 0.140024,-0.01 0.261401,-0.038 0.382675,-0.076 0.242546,-0.075 0.485894,-0.1871 0.726302,-0.3026 0.240409,-0.1154 0.474418,-0.2338 0.661872,-0.3183 0.187452,-0.084 0.37319,-0.1135 0.283102,-0.1132 -0.09009,3e-4 0.09317,0.028 0.281149,0.1113 0.187975,0.083 0.422702,0.2005 0.663825,0.3143 0.241122,0.114 0.485243,0.2248 0.728254,0.2988 0.121506,0.037 0.24261,0.066 0.382675,0.072 0.140066,0.01 0.321877,-0.01 0.497869,-0.1347 0.17599,-0.1288 0.242885,-0.298 0.279197,-0.4335 0.03632,-0.1354 0.04528,-0.2595 0.04686,-0.3866 0.0032,-0.2539 -0.02894,-0.5204 -0.06443,-0.7848 -0.03549,-0.2643 -0.07529,-0.5239 -0.09763,-0.7283 -0.02233,-0.2044 0.0061,-0.3884 -0.02148,-0.3026 -0.02757,0.086 0.05606,-0.082 0.19329,-0.2342 0.137235,-0.1531 0.322815,-0.3409 0.505679,-0.535 0.182864,-0.1941 0.362179,-0.3911 0.50763,-0.5994 0.07273,-0.1041 0.138023,-0.2105 0.187433,-0.3417 0.04941,-0.1313 0.09341,-0.3084 0.02538,-0.5154 -0.06803,-0.2072 -0.206522,-0.3239 -0.324103,-0.4003 -0.117581,-0.076 -0.233092,-0.1232 -0.353388,-0.164 -0.240596,-0.082 -0.504961,-0.1316 -0.767304,-0.1796 -0.262342,-0.048 -0.521142,-0.091 -0.722397,-0.1328 -0.201256,-0.042 -0.365913,-0.127 -0.292864,-0.074 0.07305,0.053 -0.06084,-0.078 -0.164004,-0.2558 -0.103157,-0.1778 -0.225283,-0.4104 -0.353389,-0.6442 -0.128106,-0.2338 -0.258843,-0.467 -0.411961,-0.6697 -0.07657,-0.1014 -0.157953,-0.1956 -0.267483,-0.2831 -0.109528,-0.088 -0.264218,-0.1843 -0.482248,-0.1836 z m -19.3172929,1.1559 c 0.084795,0.1233 0.1795488,0.2753 0.2811492,0.4607 0.1206687,0.2204 0.2432556,0.4558 0.3651035,0.6658 0.1218485,0.2101 0.1941991,0.3879 0.4412481,0.5663 0.2470494,0.1783 0.4378228,0.1925 0.6755389,0.2421 0.2377167,0.049 0.5006673,0.09 0.7477788,0.1346 0.2082052,0.038 0.3832705,0.084 0.5271548,0.125 -0.091187,0.1187 -0.2085107,0.2562 -0.3533889,0.41 -0.1722482,0.1829 -0.3572483,0.3717 -0.5193451,0.5526 -0.1620975,0.1807 -0.3069979,0.3035 -0.4002472,0.5935 -0.093248,0.2901 -0.049808,0.4752 -0.023429,0.7165 0.026379,0.2414 0.068096,0.5048 0.1015261,0.7537 0.028146,0.2096 0.041972,0.3892 0.046859,0.5388 -0.1411537,-0.05 -0.3066374,-0.1166 -0.4978684,-0.2069 -0.2271236,-0.1073 -0.4652241,-0.2277 -0.6872536,-0.326 -0.2220299,-0.098 -0.3845256,-0.1962 -0.689206,-0.1953 -0.3046808,0 -0.467793,0.1014 -0.6892059,0.2011 -0.2214135,0.1 -0.4568977,0.2194 -0.6833488,0.328 -0.1904682,0.091 -0.3570835,0.16 -0.4978683,0.2108 0.00394,-0.1496 0.014142,-0.3289 0.041001,-0.5388 0.031878,-0.2492 0.072746,-0.5121 0.097621,-0.7537 0.024876,-0.2415 0.06772,-0.427 -0.027334,-0.7164 -0.095054,-0.2895 -0.2389791,-0.4138 -0.4021994,-0.5936 -0.1632198,-0.1798 -0.3518187,-0.3668 -0.5252024,-0.5487 -0.1459859,-0.153 -0.261459,-0.2898 -0.3533889,-0.4081 0.1436266,-0.043 0.3172106,-0.086 0.5252023,-0.1249 0.2468255,-0.047 0.5084225,-0.092 0.7458264,-0.1424 0.2374037,-0.051 0.4276528,-0.066 0.6735865,-0.2461 0.2459333,-0.1798 0.3187581,-0.3554 0.4392956,-0.5662 0.1205374,-0.2107 0.2419044,-0.4487 0.3611986,-0.6697 0.1005251,-0.1864 0.1951317,-0.3388 0.2791968,-0.4627 z m 19.3211979,0 c 0.08479,0.1233 0.179548,0.2753 0.281149,0.4607 0.120668,0.2204 0.243256,0.4558 0.365103,0.6658 0.12185,0.2101 0.194199,0.3879 0.441249,0.5663 0.247049,0.1783 0.437822,0.1925 0.675538,0.2421 0.237716,0.049 0.500667,0.09 0.747779,0.1346 0.208205,0.038 0.383271,0.084 0.527155,0.125 -0.09118,0.1187 -0.208511,0.2562 -0.353389,0.41 -0.172249,0.1829 -0.357248,0.3717 -0.519345,0.5526 -0.162098,0.1807 -0.306998,0.3035 -0.400247,0.5935 -0.09324,0.2901 -0.04786,0.4752 -0.02148,0.7165 0.02638,0.2414 0.06615,0.5048 0.09958,0.7537 0.02815,0.2096 0.04392,0.3892 0.04881,0.5388 -0.141153,-0.05 -0.30859,-0.1166 -0.49982,-0.2069 -0.227125,-0.1073 -0.465224,-0.2277 -0.687255,-0.326 -0.22203,-0.098 -0.384525,-0.1962 -0.689205,-0.1953 -0.304681,0 -0.467793,0.1014 -0.689206,0.2011 -0.221413,0.1 -0.456898,0.2194 -0.683349,0.328 -0.190469,0.091 -0.357083,0.16 -0.497868,0.2108 0.0039,-0.1496 0.01414,-0.3289 0.041,-0.5388 0.03188,-0.2492 0.07275,-0.5121 0.09763,-0.7537 0.02487,-0.2415 0.06772,-0.427 -0.02734,-0.7164 -0.09505,-0.2895 -0.238979,-0.4138 -0.402199,-0.5936 -0.16322,-0.1798 -0.351819,-0.3668 -0.525203,-0.5487 -0.145985,-0.153 -0.26146,-0.2898 -0.353389,-0.4081 0.143627,-0.043 0.317211,-0.086 0.525203,-0.1249 0.246825,-0.047 0.510375,-0.092 0.747778,-0.1424 0.237404,-0.051 0.4257,-0.066 0.671634,-0.2461 0.245933,-0.1798 0.318759,-0.3554 0.439296,-0.5662 0.120538,-0.2107 0.241904,-0.4487 0.361199,-0.6697 0.100524,-0.1864 0.195131,-0.3388 0.279197,-0.4627 z m -8.594575,4.3519 -0.02929,0.4393 c -0.0097,0.148 -0.08287,0.2445 -0.23429,0.3515 -0.144681,0.1024 -0.358002,0.1849 -0.554489,0.2031 l -0.02929,0 -2.048094,0 c -1.40693,0 -2.54401,1.16 -2.54401,2.5751 l 0,1.8724 0,0.029 0,0.7303 c -0.01971,0.077 -0.01971,0.158 0,0.2343 l 0,1.5795 c 0,1.0046 0.358597,1.9358 0.935212,2.6611 l 0,2.2238 -4.6213904,2.6319 c -1.1988455,0.685 -1.9309483,1.9558 -1.9309483,3.3367 l 0,3.1882 0,0.4667 0,0.4686 19.6570147,0 0,-0.4686 0,-0.4667 0,-3.2761 c 0,-1.3249 -0.722075,-2.5602 -1.872376,-3.2176 l -4.679963,-2.6631 0,-2.2218 c 0.576612,-0.7253 0.935213,-1.6584 0.935213,-2.6631 l 0,-1.2574 c 0.03025,-0.095 0.03025,-0.1986 0,-0.2929 l 0,-0.9938 c -4.78e-4,0.048 0,0.053 0,-0.029 l 0,-2.7489 0,-0.029 0,-0.029 c -0.0926,-0.7113 -0.308091,-1.3515 -0.730207,-1.8431 -0.422115,-0.4917 -1.05722,-0.7944 -1.813804,-0.7908 l -0.439295,0 z m 0.585727,0.9939 c 0.41491,0.034 0.741898,0.1507 0.964498,0.4099 0.256038,0.2983 0.420646,0.7522 0.497868,1.3453 l 0,2.6923 0,0.029 0,0.1152 c -0.190381,-0.087 -0.386713,-0.1664 -0.585726,-0.2031 -0.557247,-0.1024 -1.125664,-0.084 -1.667372,-0.059 -0.541704,0.022 -1.080971,0.025 -1.491652,-0.088 -0.410682,-0.1134 -0.721438,-0.2897 -0.993784,-0.7614 -0.09728,-0.1826 -0.326429,-0.2846 -0.527155,-0.2343 -0.159315,0.049 -0.287712,0.1885 -0.322151,0.3515 0.01699,-0.064 -0.04685,0.083 -0.173766,0.2343 -0.12692,0.1503 -0.313187,0.333 -0.497868,0.4978 -0.103702,0.093 -0.194197,0.1589 -0.292863,0.2343 l 0,-0.088 0,-0.029 0,-1.8724 c 0,-0.9189 0.710541,-1.638 1.608798,-1.638 l 2.07738,0 0.02929,0 c 0.36758,-0.024 0.73079,-0.1535 1.052358,-0.3808 0.167289,-0.1183 0.208863,-0.3672 0.32215,-0.5563 z m -3.539746,4.3597 c 0.328063,0.3176 0.631857,0.6808 1.02307,0.7888 0.593031,0.1637 1.198509,0.1404 1.755231,0.1171 0.556721,-0.023 1.077561,-0.042 1.464318,0.029 0.346249,0.063 0.573247,0.1963 0.759493,0.4686 l 0,1.2574 c 0,1.8525 -1.455983,3.3054 -3.276169,3.3054 -1.820174,0 -3.276168,-1.4529 -3.276168,-3.3054 l 0,-1.316 c 0.0925,-0.045 0.172038,-0.1175 0.263576,-0.1757 0.22073,-0.1401 0.42803,-0.3065 0.642349,-0.4979 0.21432,-0.1911 0.421707,-0.3915 0.585727,-0.5857 0.02356,-0.028 0.0367,-0.058 0.05858,-0.086 z m -0.615014,6.2302 c 0.665805,0.4432 1.481482,0.6736 2.340957,0.6736 0.85948,0 1.675153,-0.2304 2.340958,-0.6736 l 0,1.5795 0,0.205 c -0.377066,0.7061 -0.7105,1.4499 -1.550225,2.1652 l -0.02929,0.027 -0.761446,0.7029 -0.702873,-0.7029 -0.05858,-0.059 c -0.654773,-0.7069 -1.272541,-1.5423 -1.579511,-2.339 l 0,-1.5795 z m -1.286648,2.6026 -0.583775,2.0774 0,0.029 0,0.029 c -0.08803,0.7282 0.702227,1.3419 1.374508,1.023 l 0,-0.029 1.725943,-0.8474 0.642348,0.615 0,4.9728 -4.679963,0 0,-2.3408 -0.9352116,0 0,2.3408 -2.8095395,0 0,-3.1882 c 0,-1.0464 0.5557546,-2.0268 1.4643186,-2.5459 l 3.8013715,-2.136 z m 0.937164,0 c 0.299277,0.5389 0.596105,1.0586 0.993784,1.521 l -1.550225,0.7887 c -0.03551,0.017 -0.03886,0.02 -0.02929,-0.059 l 0.585727,-2.2511 z m 6.464479,0.059 3.713512,2.134 c 0.85999,0.4915 1.405746,1.4091 1.405746,2.3995 l 0,3.2761 -2.780253,0 0,-2.3408 -0.935211,0 0,2.3408 -4.70925,0 0,-4.9435 0.700921,-0.6443 1.843089,0.8786 c 0.681477,0.3089 1.468476,-0.2827 1.374507,-1.0249 l 0,-0.057 0,-0.029 c 0,0 -0.258017,-0.7897 -0.495916,-1.5796 -0.04487,-0.149 -0.07374,-0.2677 -0.117145,-0.41 z m -0.937164,0.1465 c 0.0539,0.1861 0.08802,0.3603 0.146432,0.5544 0.227535,0.7556 0.44303,1.4118 0.468582,1.4916 0.0081,0.063 -2.06e-4,0.084 -0.05858,0.057 l -1.579511,-0.7594 c 0.433937,-0.4751 0.792634,-0.9155 1.023071,-1.3432 z m -1.43308,4.387 c -0.258484,0 -0.468582,0.2102 -0.468582,0.4686 0,0.2586 0.210098,0.4686 0.468582,0.4686 0.258484,0 0.468582,-0.21 0.468582,-0.4686 0,-0.2584 -0.210098,-0.4686 -0.468582,-0.4686 z m 0,1.8724 c -0.258484,0 -0.468582,0.2101 -0.468582,0.4686 0,0.2586 0.210098,0.4666 0.468582,0.4666 0.258484,0 0.468582,-0.208 0.468582,-0.4666 0,-0.2585 -0.210098,-0.4686 -0.468582,-0.4686 z" color="#000" enable-background="accumulate" font-family="Sans" font-weight="400" overflow="visible" transform="translate(0 -1020.362)"/></svg>