<svg xmlns="http://www.w3.org/2000/svg" data-name=" 1" viewBox="0 0 128 128"><path d="M126.74,86.4,90.8,72a2,2,0,0,0-1.9.22L72.52,83.87A88.62,88.62,0,0,1,44.06,55.38L55.74,39.11A2,2,0,0,0,56,37.2L41.6,1.26A2,2,0,0,0,39.37,0L1.66,7.22a1.93,1.93,0,0,0-.77.31h0a1.79,1.79,0,0,0-.36.3A2,2,0,0,0,0,9.18H0A119,119,0,0,0,118.81,128h0a2,2,0,0,0,1.35-.53,1.79,1.79,0,0,0,.3-.36h0a1.93,1.93,0,0,0,.31-.77L128,88.63A2,2,0,0,0,126.74,86.4ZM117.16,124A115,115,0,0,1,4,10.84L38.49,4.27l13.36,33.4L40,54.12A2,2,0,0,0,40,56.31,92.42,92.42,0,0,0,71.57,88a2,2,0,0,0,2.18-.08L90.33,76.15l33.4,13.36Z"/></svg>