<svg xmlns="http://www.w3.org/2000/svg" width="512" height="512" enable-background="new 0 0 512 512" viewBox="0 0 512 512"><path d="M332.933,390.724c-2.597,0-5.172-1.117-6.952-3.278c-3.16-3.837-2.611-9.509,1.226-12.669l144.521-119.034
				L327.206,136.708c-3.837-3.16-4.386-8.832-1.226-12.669c3.162-3.839,8.834-4.384,12.669-1.226l152.955,125.981
				c2.076,1.71,3.278,4.258,3.278,6.947s-1.202,5.237-3.278,6.947L338.649,388.671C336.974,390.051,334.947,390.724,332.933,390.724
				z"/><path d="M485.883,264.742H26.781c-4.971,0-9-4.029-9-9s4.029-9,9-9h459.102c4.971,0,9,4.029,9,9S490.854,264.742,485.883,264.742
				z"/></svg>