<svg xmlns="http://www.w3.org/2000/svg" viewBox="0 0 24 24"><path d="M23.5 24.002h-4a.5.5 0 0 1-.5-.5c0-10.201-8.299-18.5-18.5-18.5a.5.5 0 0 1-.5-.5v-4a.5.5 0 0 1 .5-.5c12.958 0 23.5 10.542 23.5 23.5a.5.5 0 0 1-.5.5zm-3.506-1h3.001C22.731 10.992 13.01 1.271 1 1.008v3.001c10.355.262 18.731 8.638 18.994 18.993z"/><path d="M16.5 24.002h-4a.5.5 0 0 1-.5-.5c0-6.341-5.159-11.5-11.5-11.5a.5.5 0 0 1-.5-.5v-4a.5.5 0 0 1 .5-.5c9.098 0 16.5 7.402 16.5 16.5a.5.5 0 0 1-.5.5zm-3.51-1h3.002C15.732 14.852 9.15 8.27 1 8.01v3.002c6.496.257 11.733 5.495 11.99 11.99z"/><path d="M3.5 24.002c-1.93 0-3.5-1.57-3.5-3.5s1.57-3.5 3.5-3.5 3.5 1.57 3.5 3.5-1.57 3.5-3.5 3.5zm0-6c-1.378 0-2.5 1.122-2.5 2.5s1.122 2.5 2.5 2.5S6 21.88 6 20.502s-1.122-2.5-2.5-2.5z"/></svg>