<svg xmlns="http://www.w3.org/2000/svg" xmlns:xlink="http://www.w3.org/1999/xlink" width="150" zoomAndPan="magnify" viewBox="0 0 112.5 112.499997" height="150" preserveAspectRatio="xMidYMid meet" version="1.0"><defs><g/><clipPath id="6d5fca4b4c"><path d="M 0 0 L 112 0 L 112 112.003906 L 0 112.003906 Z M 0 0 " clip-rule="nonzero"/></clipPath><clipPath id="c3f642cf3e"><rect x="0" width="112" y="0" height="113"/></clipPath></defs><g clip-path="url(#6d5fca4b4c)"><g transform="matrix(1, 0, 0, 1, 0.000000000000000056, -0.000000000000000624)"><g clip-path="url(#c3f642cf3e)"><g fill="#eb4a4a" fill-opacity="1"><g transform="translate(0.809367, 92.412716)"><g><path d="M 12.621094 -76.261719 L 57.914062 -76.261719 L 29.34375 2.277344 L 0.773438 -76.261719 L 5.804688 -76.261719 L 30.042969 -9.640625 L 29.34375 -9.386719 L 28.648438 -9.640625 L 51.519531 -72.539062 L 52.21875 -72.285156 L 52.21875 -71.542969 L 11.882812 -71.542969 L 11.882812 -76.261719 Z M 12.621094 -74.777344 L 12.621094 -75.519531 L 13.363281 -75.519531 L 13.363281 -72.285156 L 12.621094 -72.285156 L 12.621094 -73.027344 L 53.277344 -73.027344 L 29.34375 -7.214844 L 4.589844 -75.265625 L 5.285156 -75.519531 L 5.285156 -74.777344 L 1.835938 -74.777344 L 1.835938 -75.519531 L 2.53125 -75.773438 L 30.042969 -0.144531 L 29.34375 0.109375 L 28.648438 -0.144531 L 56.160156 -75.773438 L 56.855469 -75.519531 L 56.855469 -74.777344 Z M 12.621094 -74.777344 "/></g></g></g><g fill="#eb4a4a" fill-opacity="1"><g transform="translate(52.486921, 92.412716)"><g><path d="M 12.621094 -76.261719 L 57.914062 -76.261719 L 29.34375 2.277344 L 0.773438 -76.261719 L 5.804688 -76.261719 L 30.042969 -9.640625 L 29.34375 -9.386719 L 28.648438 -9.640625 L 51.519531 -72.539062 L 52.21875 -72.285156 L 52.21875 -71.542969 L 11.882812 -71.542969 L 11.882812 -76.261719 Z M 12.621094 -74.777344 L 12.621094 -75.519531 L 13.363281 -75.519531 L 13.363281 -72.285156 L 12.621094 -72.285156 L 12.621094 -73.027344 L 53.277344 -73.027344 L 29.34375 -7.214844 L 4.589844 -75.265625 L 5.285156 -75.519531 L 5.285156 -74.777344 L 1.835938 -74.777344 L 1.835938 -75.519531 L 2.53125 -75.773438 L 30.042969 -0.144531 L 29.34375 0.109375 L 28.648438 -0.144531 L 56.160156 -75.773438 L 56.855469 -75.519531 L 56.855469 -74.777344 Z M 12.621094 -74.777344 "/></g></g></g><g fill="#eb4a4a" fill-opacity="1"><g transform="translate(0.809367, 92.412716)"><g><path d="M 12.625 -75.515625 L 56.859375 -75.515625 L 29.34375 0.109375 L 1.828125 -75.515625 L 5.28125 -75.515625 L 29.34375 -9.390625 L 52.21875 -72.28125 L 12.625 -72.28125 Z M 12.625 -75.515625 "/></g></g></g><g fill="#eb4a4a" fill-opacity="1"><g transform="translate(52.486921, 92.412716)"><g><path d="M 12.625 -75.515625 L 56.859375 -75.515625 L 29.34375 0.109375 L 1.828125 -75.515625 L 5.28125 -75.515625 L 29.34375 -9.390625 L 52.21875 -72.28125 L 12.625 -72.28125 Z M 12.625 -75.515625 "/></g></g></g></g></g></g></svg>